<?xml version="1.0" encoding="UTF-8"?>
<svg width="1600" height="400" viewBox="0 0 1600 400" fill="none" xmlns="http://www.w3.org/2000/svg">
  <title>RaidTimeCore Logo</title>
  <desc>Horizontal logo for RaidTimeCore: icon + red wordmark.</desc>

  <defs>
    <linearGradient id="g" x1="160" y1="120" x2="864" y2="904" gradientUnits="userSpaceOnUse">
      <stop offset="0" stop-color="#111827"/>
      <stop offset="1" stop-color="#0B1220"/>
    </linearGradient>
    <linearGradient id="accent" x1="256" y1="256" x2="768" y2="768" gradientUnits="userSpaceOnUse">
      <stop offset="0" stop-color="#22C55E"/>
      <stop offset="1" stop-color="#EF4444"/>
    </linearGradient>
  </defs>

  <!-- Icon (scaled from 1024 -> 320) -->
  <g transform="translate(40 40) scale(0.3125)">
    <rect x="96" y="96" width="832" height="832" rx="180" fill="url(#g)"/>
    <path d="M512 196C424 252 338 280 276 296V520C276 694 394 814 512 870C630 814 748 694 748 520V296C686 280 600 252 512 196Z" fill="#0F172A" stroke="#1F2937" stroke-width="18"/>
    <circle cx="512" cy="520" r="220" fill="none" stroke="#E5E7EB" stroke-opacity="0.12" stroke-width="22"/>
    <circle cx="512" cy="520" r="168" fill="none" stroke="url(#accent)" stroke-width="18" stroke-linecap="round"/>
    <path d="M512 520V404" stroke="#E5E7EB" stroke-width="26" stroke-linecap="round"/>
    <path d="M512 520L610 578" stroke="#E5E7EB" stroke-width="26" stroke-linecap="round"/>
    <circle cx="512" cy="520" r="18" fill="#E5E7EB"/>
    <path d="M352 520H672" stroke="#E5E7EB" stroke-opacity="0.08" stroke-width="14" stroke-linecap="round"/>
  </g>

  <!-- Wordmark -->
  <text x="400" y="248" fill="#EF4444" font-family="system-ui, -apple-system, Segoe UI, Roboto, Arial, sans-serif" font-size="140" font-weight="800" letter-spacing="-2">
    RaidTimeCore
  </text>
</svg>
